<svg id="Capa_1" enable-background="new 0 0 512 512" height="512" viewBox="0 0 512 512" width="50" xmlns="http://www.w3.org/2000/svg"><g><path d="m283.457 7.5h-82.606c-19.566 0-35.427 15.861-35.427 35.427v51.817l15.665 20h117.139l20.657-20v-51.817c-.001-19.566-15.862-35.427-35.428-35.427z" fill="#8b5e5e"/><path d="m283.457 7.5h-20.657c19.566 0 35.427 15.861 35.427 35.427v71.817l20.657-20v-51.817c0-19.566-15.861-35.427-35.427-35.427z" fill="#785252"/><g><g><path d="m264.617 114.009c-4.143 0-7.5-3.357-7.5-7.5v-99.009c0-4.143 3.357-7.5 7.5-7.5s7.5 3.357 7.5 7.5v99.009c0 4.142-3.358 7.5-7.5 7.5z" fill="#664545"/></g><g><path d="m219.691 114.009c-4.143 0-7.5-3.357-7.5-7.5v-99.009c0-4.143 3.357-7.5 7.5-7.5s7.5 3.357 7.5 7.5v99.009c0 4.142-3.357 7.5-7.5 7.5z" fill="#664545"/></g></g><path d="m283.457 504.5h-82.606c-19.566 0-35.427-15.861-35.427-35.427v-51.817l16.625-20h116.179l20.657 20v51.817c-.001 19.566-15.862 35.427-35.428 35.427z" fill="#8b5e5e"/><path d="m298.228 397.256v71.817c0 19.566-15.861 35.427-35.427 35.427h20.657c19.566 0 35.427-15.861 35.427-35.427v-51.817z" fill="#785252"/><g><g><path d="m264.617 512c-4.143 0-7.5-3.357-7.5-7.5v-99.009c0-4.143 3.357-7.5 7.5-7.5s7.5 3.357 7.5 7.5v99.009c0 4.143-3.358 7.5-7.5 7.5z" fill="#664545"/></g><g><path d="m219.691 512c-4.143 0-7.5-3.357-7.5-7.5v-99.009c0-4.143 3.357-7.5 7.5-7.5s7.5 3.357 7.5 7.5v99.009c0 4.143-3.357 7.5-7.5 7.5z" fill="#664545"/></g></g><path d="m338.915 191.475h-193.522v-85.543c0-6.179 5.009-11.188 11.188-11.188h171.147c6.179 0 11.188 5.009 11.188 11.188v85.543z" fill="#365e7d"/><path d="m338.915 320.525h-193.522v85.543c0 6.179 5.009 11.188 11.188 11.188h171.147c6.179 0 11.188-5.009 11.188-11.188v-85.543z" fill="#365e7d"/><g fill="#2b4d66"><path d="m145.393 369.942c26.077 22.167 59.854 35.549 96.761 35.549s70.684-13.382 96.761-35.549v-49.417h-193.522z"/><path d="m338.915 142.058c-26.077-22.167-59.854-35.549-96.761-35.549s-70.684 13.382-96.761 35.549v49.417h193.522z"/><path d="m393.322 281.947h-28.053v-51.894h28.053c6.261 0 11.336 5.075 11.336 11.336v29.222c-.001 6.261-5.076 11.336-11.336 11.336z"/></g><circle cx="242.154" cy="256" fill="#eab14d" r="134.811"/><path d="m242.154 121.189c-3.475 0-6.919.132-10.328.39 69.629 5.275 124.483 63.442 124.483 134.421s-54.855 129.146-124.483 134.421c3.409.258 6.853.39 10.328.39 74.454 0 134.811-60.357 134.811-134.812 0-74.453-60.357-134.81-134.811-134.81z" fill="#e49542"/><circle cx="242.154" cy="256" fill="#f4fbff" r="100.684"/><path d="m242.154 155.316c-3.487 0-6.933.178-10.328.524 50.754 5.172 90.356 48.041 90.356 100.16s-39.602 94.989-90.356 100.16c3.396.346 6.841.524 10.328.524 55.606 0 100.684-45.078 100.684-100.684s-45.078-100.684-100.684-100.684z" fill="#daf1f4"/><g><g><path d="m242.154 196.975c-4.143 0-7.5-3.357-7.5-7.5v-5.361c0-4.143 3.357-7.5 7.5-7.5s7.5 3.357 7.5 7.5v5.361c0 4.142-3.357 7.5-7.5 7.5z" fill="#365e7d"/></g><g><path d="m314.041 263.5h-5.361c-4.143 0-7.5-3.357-7.5-7.5s3.357-7.5 7.5-7.5h5.361c4.143 0 7.5 3.357 7.5 7.5s-3.358 7.5-7.5 7.5z" fill="#365e7d"/></g><g><path d="m242.154 335.387c-4.143 0-7.5-3.357-7.5-7.5v-5.361c0-4.143 3.357-7.5 7.5-7.5s7.5 3.357 7.5 7.5v5.361c0 4.142-3.357 7.5-7.5 7.5z" fill="#365e7d"/></g><g><path d="m175.629 263.5h-5.361c-4.143 0-7.5-3.357-7.5-7.5s3.357-7.5 7.5-7.5h5.361c4.143 0 7.5 3.357 7.5 7.5s-3.358 7.5-7.5 7.5z" fill="#365e7d"/></g></g><g><path d="m242.154 263.5h-20.656c-4.143 0-7.5-3.357-7.5-7.5s3.357-7.5 7.5-7.5h13.156v-35.309c0-4.143 3.357-7.5 7.5-7.5s7.5 3.357 7.5 7.5v42.809c0 4.143-3.357 7.5-7.5 7.5z" fill="#2b4d66"/></g></g></svg>