<svg id="Layer_1" enable-background="new 0 0 512.061 512.061" height="512" viewBox="0 0 512.061 512.061" width="50" xmlns="http://www.w3.org/2000/svg"><g><path d="m328.03 200.061h-144c-4.418 0-8 3.582-8 8v48c0 4.418 3.582 8 8 8h144c4.418 0 8-3.582 8-8v-48c0-4.418-3.582-8-8-8z" fill="#f1cc76"/><path d="m336.03 208.061v48c0 4.42-3.58 8-8 8h-48c4.42 0 8-3.58 8-8v-48c0-4.42-3.58-8-8-8h48c4.42 0 8 3.58 8 8z" fill="#ebb15d"/><path d="m372.258 80.974-4.924-4.923-12.71-57.196c-2.459-11.066-12.094-18.794-23.429-18.794-16.854 0-26.628 13.282-25.143 26.65l5.237 47.133c-21.355 5.576-40.536 17.265-55.26 33.631-14.724-16.366-33.904-28.055-55.26-33.631l5.237-47.134c1.468-13.214-8.106-26.649-25.143-26.649-11.335 0-20.97 7.729-23.429 18.794l-12.71 57.196-4.924 4.923c-9.573 9.573-13.284 22.673-11.226 35.03 5.18 31.081 18.581 60.306 38.755 84.514l10.553 12.664c1.52 1.824 3.771 2.879 6.146 2.879h144c2.374 0 4.626-1.055 6.146-2.879 14.592-17.512 40.774-45.971 49.307-97.176 2.063-12.352-1.648-25.457-11.223-35.032z" fill="#e48c9b"/><path d="m383.48 116.011c-5.18 31.07-18.58 60.3-38.75 84.51l-10.55 12.66c-1.52 1.83-3.78 2.88-6.15 2.88h-40c2.37 0 4.63-1.05 6.15-2.88 14.599-17.519 40.766-45.981 49.3-97.17 2.081-12.256-1.628-25.448-11.22-35.04l-4.93-4.92c-13.612-61.26-12.754-60.726-16.76-66.2 11.666-16.078 39.367-12.054 44.05 9l12.71 57.2 4.93 4.92c9.618 9.617 13.295 22.821 11.22 35.04z" fill="#cc5b6f"/><path d="m462.731 442.679c-9.809-31.388-20.465-69.705-54.447-117.059-21-29.265-46.418-54.844-75.548-76.029-1.367-.995-3.015-1.53-4.705-1.53h-144c-1.69 0-3.338.535-4.705 1.53-57.374 41.727-101.368 101.479-123.387 171.941l-6.609 21.148c-1.776 5.684 1.379 11.765 7.1 13.557 9.858 4.596 17.576 24.236 33.114 29.313 8.957 2.926 18.593.437 27.096-1.761 17.106-4.418 18.607-4.047 31.805 7.682 6.561 5.831 13.998 12.44 23.293 13.921 9.291 1.483 18.406-2.491 26.451-5.994 16.203-7.051 17.831-6.88 32.616 2.569 7.404 4.731 15.796 10.095 25.226 10.095s17.821-5.363 25.226-10.095c14.746-9.424 16.392-9.634 32.616-2.569 8.045 3.504 17.165 7.477 26.45 5.994 9.296-1.48 16.733-8.09 23.294-13.921 13.219-11.747 14.71-12.098 31.805-7.682 24.517 6.336 32.214 3.495 47.884-15.63 4.026-4.915 8.185-9.991 12.326-11.922 5.727-1.794 8.873-7.88 7.099-13.558z" fill="#e48c9b"/><path d="m455.631 456.241c-4.14 1.93-8.3 7-12.33 11.92-15.827 19.334-23.562 21.895-47.88 15.63-4.79-1.24-9.7-2.5-13.73-2.58 10.101-7.504 17.169-21.347 24.94-24.97 5.744-1.81 8.866-7.893 7.1-13.56l-6.61-21.15c-21.112-67.58-63.571-128.419-123.38-171.94-1.37-.99-3.02-1.53-4.71-1.53h49c1.69 0 3.34.54 4.71 1.53 29.12 21.19 54.54 46.76 75.54 76.03 33.148 46.186 44.049 83.778 54.45 117.06 1.763 5.658-1.348 11.747-7.1 13.56z" fill="#cc5b6f"/></g></svg>