<svg id="Capa_1" enable-background="new 0 0 512 512" height="512" viewBox="0 0 512 512" width="50" xmlns="http://www.w3.org/2000/svg"><g><path d="m512 197c0-73.286-58.349-134.554-131.562-136.927h-124.438-124.351c-73.256 2.329-131.649 63.597-131.649 136.927v15c0 7.839 3.025 29.987 7.967 35.338l-7.967 16.318v38.344c0 7.59 2.836 29.533 7.504 34.823l-7.504 16.833v38.344c0 33.091 26.909 60 60 60h33.122c6.691 25.834 29.952 45 57.878 45h105 105c27.925 0 51.187-19.166 57.878-45h32.122c33.091 0 61-26.909 61-60v-38.344l-12.643-12.202c7.646-5.444 12.643-29.378 12.643-39.454v-38.344l-10.728-13.683c6.553-5.51 10.728-28.765 10.728-37.973z" fill="#a8b4ff"/><path d="m418.878 452h32.122c33.091 0 61-26.909 61-60v-38.344l-12.643-12.202c7.646-5.444 12.643-29.378 12.643-39.454v-38.344l-10.728-13.683c6.553-5.51 10.728-28.765 10.728-37.973v-15c0-73.286-58.349-134.554-131.562-136.927h-124.438v436.927h105c27.925 0 51.187-19.166 57.878-45z" fill="#808cff"/><path d="m316 0h-60-60l-64.261 41.909 20.975 40.049c1.45 2.783 36.401 70.042 103.286 70.042s101.836-67.259 103.286-70.042l18.754-35.815z" fill="#b8c8ff"/><path d="m359.286 81.958 18.754-35.815-62.04-46.143h-60v152c66.885 0 101.836-67.259 103.286-70.042z" fill="#a6a6ff"/><g><path d="m376 90c-30 0-23.002-13.086-60-90h40.649c37.359 0 61.966 38.571 46.714 72.305-4.848 10.752-15.586 17.695-27.363 17.695z" fill="#6d74f2"/></g><path d="m136 90c-11.777 0-22.529-6.943-27.378-17.681-15.259-33.85 9.482-72.319 46.729-72.319h40.649c-38.611 80.266-30 90-60 90z" fill="#808cff"/><path d="m482 272c10.977 0 21.14-3.177 30-8.344v-51.656c0 16.538-13.462 30-30 30h-46v-75c0-8.291-6.709-15-15-15s-15 6.709-15 15v15c0 16.538-13.462 30-30 30h-105v-130.789l45-81.211h-60-60l45 81.211v130.789h-105c-16.538 0-30-13.462-30-30v-15c0-8.291-6.709-15-15-15s-15 6.709-15 15v75h-46c-16.538 0-30-13.462-30-30v51.656c8.86 5.167 19.023 8.344 30 8.344h46v60h-46c-16.538 0-30-13.462-30-30v51.656c8.86 5.167 19.023 8.344 30 8.344h46v90c0 33.091 26.909 60 60 60h120 120c33.091 0 60-26.909 60-60v-90h46c10.977 0 21.14-3.177 30-8.344v-51.656c0 16.538-13.462 30-30 30h-46v-60zm-241 210h-105c-16.538 0-30-13.462-30-30v-38.344c8.86 5.167 19.023 8.344 30 8.344h105zm0-90h-105c-16.538 0-30-13.462-30-30v-38.344c8.86 5.167 19.023 8.344 30 8.344h105zm0-90h-105c-16.538 0-30-13.462-30-30v-38.344c8.86 5.167 19.023 8.344 30 8.344h105zm165 150c0 16.538-13.462 30-30 30h-105v-60h105c10.977 0 21.14-3.177 30-8.344zm0-90c0 16.538-13.462 30-30 30h-105v-60h105c10.977 0 21.14-3.177 30-8.344zm0-90c0 16.538-13.462 30-30 30h-105v-60h105c10.977 0 21.14-3.177 30-8.344z" fill="#808cff"/><path d="m436 452v-90h46c10.977 0 21.14-3.177 30-8.344v-51.656c0 16.538-13.462 30-30 30h-46v-60h46c10.977 0 21.14-3.177 30-8.344v-51.656c0 16.538-13.462 30-30 30h-46v-75c0-8.291-6.709-15-15-15s-15 6.709-15 15v15c0 16.538-13.462 30-30 30h-105v-130.789l45-81.211h-60v512h120c33.091 0 60-26.909 60-60zm-165-210h105c10.977 0 21.14-3.177 30-8.344v38.344c0 16.538-13.462 30-30 30h-105zm0 90h105c10.977 0 21.14-3.177 30-8.344v38.344c0 16.538-13.462 30-30 30h-105zm0 90h105c10.977 0 21.14-3.177 30-8.344v38.344c0 16.538-13.462 30-30 30h-105z" fill="#6d74f2"/></g></svg>