<svg id="Flat" height="512" viewBox="0 0 512 512" width="50" xmlns="http://www.w3.org/2000/svg"><path d="m359.9 80c0-56-24-56-24-56h-159.8s-24 0-24 56c-128 0-112.1 136-112.1 136v224l16 16v32h64v-32l16.1-16 15.9 16v32h208v-32l15.9-16 16.1 16v32h64v-32l16-16v-224s15.9-136-112.1-136z" fill="#b37a60"/><path d="m232.1 128v328h-80.1l-15.9-16-16.1 16h-64l-16-16v-224s-15.9-136 112.1-136c0 0 32 48 80 48z" fill="#95573a"/><g fill="#734b39"><path d="m152 456h80.1v32h-80.1z"/><path d="m56 456h64v32h-64z"/><path d="m136.1 448a8 8 0 0 1 -8-8v-232a8 8 0 0 1 16 0v232a8 8 0 0 1 -8 8z"/><path d="m232.1 94.216v33.784c-48 0-80-48-80-48 0-56 24-56 24-56s6.566 45.964 43.5 54.608a16.073 16.073 0 0 1 12.5 15.608z"/></g><path d="m472 216v224l-16 16h-64l-16.1-16-15.9 16h-80.1v-328c48 0 80-48 80-48 128 0 112.1 136 112.1 136z" fill="#95573a"/><path d="m279.9 456h80.1v32h-80.1z" fill="#734b39"/><path d="m392 456h64v32h-64z" fill="#734b39"/><path d="m375.9 448a8 8 0 0 1 -8-8v-232a8 8 0 0 1 16 0v232a8 8 0 0 1 -8 8z" fill="#734b39"/><path d="m359.9 80s-32 48-80 48v-33.784a16.073 16.073 0 0 1 12.5-15.608c36.934-8.644 43.5-54.608 43.5-54.608s24 0 24 56z" fill="#734b39"/></svg>