<svg xmlns="http://www.w3.org/2000/svg" width="100" viewBox="95.60 85.13 209.60 228.88"><path d="M234.9 85.7C235.1 86.4 236 86.5 236 85.8 236 85.5 235.7 85.2 235.4 85.2 235 85.2 234.8 85.4 234.9 85.7M243.3 85.7C243.4 86 243.8 86.2 244.2 86.2 244.6 86.2 245 86 245.1 85.7 245.2 85.4 244.9 85.2 244.2 85.2 243.5 85.2 243.2 85.4 243.3 85.7M250.4 89C250.4 89.3 250.7 89.6 251 89.6 251.3 89.6 251.6 89.3 251.6 89 251.6 88.7 251.3 88.4 251 88.4 250.7 88.4 250.4 88.7 250.4 89M238 90.2C237.7 90.5 237.1 90.8 236.6 90.8 236 90.8 235.6 91 235.6 91.2 235.6 91.4 237.4 91.6 240.2 91.6 243 91.6 244.8 91.4 244.8 91.2 244.8 91 244.2 90.8 243.4 90.8 242.7 90.8 241.9 90.5 241.6 90.2 241.3 89.9 240.5 89.6 239.8 89.6 239.1 89.6 238.3 89.9 238 90.2M252.8 90.4C252.8 91 253.5 91.6 254.9 92.6 256.6 93.7 256.7 93 255.1 91.4 253.6 90 252.8 89.6 252.8 90.4M151.7 91.3C151.9 92 152.8 92.1 152.8 91.4 152.8 91.1 152.5 90.8 152.2 90.8 151.8 90.8 151.6 91 151.7 91.3M163.2 91.4C163.2 91.8 163.4 92 163.7 91.9 164.4 91.7 164.5 90.8 163.8 90.8 163.5 90.8 163.2 91.1 163.2 91.4M245.5 91.5C245 91.9 245.2 92.4 245.8 92.4 246.1 92.4 246.4 92.2 246.4 92 246.4 91.5 245.8 91.2 245.5 91.5M149.3 92.1C149.5 92.8 150.4 92.9 150.4 92.2 150.4 91.9 150.1 91.6 149.8 91.6 149.4 91.6 149.2 91.8 149.3 92.1M147.6 92.8C147.6 93 147.9 93.2 148.2 93.2 148.5 93.2 148.8 93 148.8 92.8 148.8 92.6 148.5 92.4 148.2 92.4 147.9 92.4 147.6 92.6 147.6 92.8M166.4 93C166.4 93.6 167.9 94.3 168.3 93.9 168.6 93.6 167.4 92.4 166.8 92.4 166.6 92.4 166.4 92.7 166.4 93M232 93.6C230.7 94.9 230.3 96.1 231.5 95.1 232.4 94.5 232.9 94 233.5 93.1 234.5 91.9 233.3 92.3 232 93.6M144.5 94.4C144.6 94.7 144.8 94.9 145 94.9 145.2 94.9 145.4 94.7 145.5 94.4 145.6 94.2 145.4 94 145 94 144.6 94 144.4 94.2 144.5 94.4M257.2 94.2C257.2 94.8 258.6 96.8 259.1 96.8 259.7 96.8 259.7 96.1 259.1 95.5 258.1 94.5 257.2 93.9 257.2 94.2M169.2 95.2C169.2 96 169.7 96.8 170.2 96.8 171 96.8 171 96.1 170.2 95.4 169.6 94.7 169.2 94.6 169.2 95.2M223.6 95.4C223.6 96.1 224.5 96 224.7 95.3 224.8 95 224.6 94.8 224.2 94.8 223.9 94.8 223.6 95.1 223.6 95.4M250.8 95.8C250.8 96 251.3 96.6 251.9 97.1 252.5 97.7 253.2 98.5 253.3 98.9 253.6 99.7 254.8 99.9 254.8 99.1 254.8 98.4 252 95.6 251.3 95.6 251 95.6 250.8 95.7 250.8 95.8M140.4 97C140.4 97.3 140.7 97.6 141 97.6 141.3 97.6 141.6 97.3 141.6 97 141.6 96.7 141.3 96.4 141 96.4 140.7 96.4 140.4 96.7 140.4 97M163.6 97.2C163.6 98 165.6 99.7 166 99.3 166.3 99.1 166 98.5 165.4 97.9 164.2 96.7 163.6 96.5 163.6 97.2M228.5 97.4C228.2 97.7 228 98.1 228 98.3 228 98.4 227.5 99.2 226.9 100.1 226.4 100.9 226 101.7 226.1 101.8 226.4 102.1 229.2 99.3 229.2 98.6 229.2 98.3 229.4 98 229.6 98 229.8 98 230 97.7 230 97.4 230 96.6 229.2 96.6 228.5 97.4M171.2 98.6C171.2 98.9 171.5 99.2 171.8 99.2 172.1 99.2 172.4 98.9 172.4 98.6 172.4 98.3 172.1 98 171.8 98 171.5 98 171.2 98.3 171.2 98.6M137.2 99.4C137.2 99.8 137.4 100 137.7 99.9 138.4 99.7 138.5 98.8 137.8 98.8 137.5 98.8 137.2 99.1 137.2 99.4M260.8 99.4C260.8 99.7 261.1 100 261.4 100 261.7 100 262 99.7 262 99.4 262 99.1 261.7 98.8 261.4 98.8 261.1 98.8 260.8 99.1 260.8 99.4M145.6 100C145.6 100.2 145.9 100.4 146.2 100.4 146.5 100.4 146.8 100.2 146.8 100 146.8 99.8 146.5 99.6 146.2 99.6 145.9 99.6 145.6 99.8 145.6 100M219.1 101.5C218.5 102 218.1 102.6 218.2 102.7 218.3 102.8 218.8 102.4 219.4 101.8 220 101.2 220.4 100.7 220.3 100.6 220.2 100.5 219.6 100.9 219.1 101.5M143.5 101.1C143 101.5 143.2 102 143.8 102 144.1 102 144.4 101.8 144.4 101.6 144.4 101.1 143.8 100.8 143.5 101.1M134 101.6C134 101.8 133.7 102 133.4 102 133.1 102 130.4 104.4 127.4 107.4 124.4 110.4 122 113.1 122 113.4 122 113.7 121.8 114 121.6 114 121.4 114 121.2 114.3 121.2 114.6 121.2 115.7 122.2 115.2 123.2 113.7 124.5 111.8 130.8 105.4 133.3 103.6 135.2 102.2 135.7 101.2 134.6 101.2 134.3 101.2 134 101.4 134 101.6M256.3 102C256.5 102.9 257 103 257.4 102.4 257.5 102.2 257.3 101.9 256.9 101.6 256.2 101.3 256.1 101.3 256.3 102M173.9 102.3C173.6 102.6 173.9 103.2 174.4 103.2 174.6 103.2 174.8 102.9 174.8 102.6 174.8 102 174.3 101.8 173.9 102.3M140.2 103.6C139 105 139 105.2 139.9 105.2 140.6 105.2 141.5 104.6 142.3 103.5 143.3 102.3 141.4 102.4 140.2 103.6M263.5 103.1C263.2 103.4 263.5 104 264 104 264.2 104 264.4 103.7 264.4 103.4 264.4 102.8 263.9 102.6 263.5 103.1M258 104.6C258 105 258.2 105.2 258.4 105.1 258.7 105 258.9 104.8 258.9 104.6 258.9 104.4 258.7 104.2 258.4 104.1 258.2 104 258 104.2 258 104.6M214.9 104.8C215 105.1 215.2 105.3 215.4 105.3 215.6 105.3 215.8 105.1 215.9 104.8 216 104.6 215.8 104.4 215.4 104.4 215 104.4 214.8 104.6 214.9 104.8M137.6 105.6C137.6 105.8 137.9 106 138.2 106 138.5 106 138.8 105.8 138.8 105.6 138.8 105.4 138.5 105.2 138.2 105.2 137.9 105.2 137.6 105.4 137.6 105.6M178.5 107.2C178.6 107.5 178.8 107.7 179 107.7 179.2 107.7 179.4 107.5 179.5 107.2 179.6 107 179.4 106.8 179 106.8 178.6 106.8 178.4 107 178.5 107.2M265.9 107.1C265.4 107.5 265.6 108 266.2 108 266.5 108 266.8 107.7 266.8 107.4 266.8 106.8 266.3 106.6 265.9 107.1M180 108.2C180 108.6 180.2 108.8 180.5 108.7 181.2 108.5 181.3 107.6 180.6 107.6 180.3 107.6 180 107.9 180 108.2M181.7 108.8C181.8 109.1 182 109.3 182.2 109.3 182.4 109.3 182.6 109.1 182.7 108.8 182.8 108.6 182.6 108.4 182.2 108.4 181.8 108.4 181.6 108.6 181.7 108.8M266.8 109C266.8 109.3 267 109.6 267.2 109.6 267.4 109.6 267.6 109.3 267.6 109 267.6 108.7 267.4 108.4 267.2 108.4 267 108.4 266.8 108.7 266.8 109M217.6 109.2C217.6 109.5 215.2 110.8 211.8 112.2 210.9 112.6 209.9 113 209.5 113.2 209.1 113.4 208.4 113.6 207.8 113.6 207.2 113.6 206.7 113.9 206.5 114.2 206.3 114.7 206 114.8 205.1 114.6 204.4 114.5 203.6 114.6 203.3 114.9 203 115.1 201.8 115.3 200.5 115.3 198 115.2 196.8 115.4 196.8 116 196.8 116.2 198.3 116.4 200.2 116.4 202.2 116.4 203.6 116.2 203.6 116 203.6 115.8 204.3 115.6 205.2 115.6 206.1 115.6 206.8 115.4 206.8 115.2 206.8 115 207.7 114.8 208.8 114.8 209.9 114.8 210.8 114.6 210.8 114.4 210.8 114.2 211.2 114 211.6 114 212 114 212.4 113.8 212.4 113.6 212.4 113.4 212.8 113.2 213.2 113.2 213.6 113.2 214 113 214 112.8 214 112.6 214.3 112.4 214.7 112.4 215.1 112.4 215.7 112 216 111.6 216.3 111.2 216.8 110.8 217.1 110.8 217.8 110.8 218.8 109.8 218.8 109.2 218.8 109 218.5 108.8 218.2 108.8 217.9 108.8 217.6 109 217.6 109.2M261.2 110.2C261.2 110.9 262.1 110.8 262.3 110.1 262.4 109.8 262.2 109.6 261.8 109.6 261.5 109.6 261.2 109.9 261.2 110.2M131.2 111C130.6 111.6 130 112.2 130 112.5 130 112.7 129.4 113.5 128.6 114.3 127.8 115.1 127.2 115.9 127.2 116 127.2 116.2 126.9 116.6 126.6 117 126.2 117.3 126 117.8 126.2 117.9 126.3 118 126.7 117.8 127 117.3 127.4 116.8 127.9 116.4 128.2 116.4 128.5 116.4 129.1 115.7 129.5 114.9 129.9 114.1 130.9 112.7 131.7 111.9 133.9 109.8 133.5 109.1 131.2 111M175.6 111.8C175.6 112.1 175.9 112.4 176.2 112.4 176.5 112.4 176.8 112.1 176.8 111.8 176.8 111.5 176.5 111.2 176.2 111.2 175.9 111.2 175.6 111.5 175.6 111.8M177.5 112.3C177 112.7 177.2 113.2 177.8 113.2 178.1 113.2 178.4 112.9 178.4 112.6 178.4 112 177.9 111.8 177.5 112.3M179.1 113.1C178.6 113.5 178.8 114 179.4 114 179.7 114 180 113.7 180 113.4 180 112.8 179.5 112.6 179.1 113.1M181.5 113.9C181 114.3 181.2 114.8 181.8 114.8 182.1 114.8 182.4 114.5 182.4 114.2 182.4 113.6 181.9 113.4 181.5 113.9M269.9 114.3C269.4 114.7 269.6 115.2 270.2 115.2 270.5 115.2 270.8 114.9 270.8 114.6 270.8 114 270.3 113.8 269.9 114.3M183.9 114.7C183.3 115.2 183.6 115.6 184.6 115.6 185.3 115.6 185.6 115.4 185.5 115.1 185.3 114.5 184.3 114.2 183.9 114.7M187.6 115.8C187.6 116.3 188.1 116.4 189.6 116.4 191.6 116.4 192.2 115.9 191 115.4 189.7 115 187.6 115.2 187.6 115.8M264.4 115.8C264.4 116.2 264.6 116.4 264.8 116.3 265.1 116.2 265.3 116 265.3 115.8 265.3 115.6 265.1 115.4 264.8 115.3 264.6 115.2 264.4 115.4 264.4 115.8M270.7 115.9C270.4 116.2 270.7 116.8 271.2 116.8 271.4 116.8 271.6 116.5 271.6 116.2 271.6 115.6 271.1 115.4 270.7 115.9M119.6 117C119.6 117.3 119.9 117.6 120.2 117.6 120.5 117.6 120.8 117.3 120.8 117 120.8 116.7 120.5 116.4 120.2 116.4 119.9 116.4 119.6 116.7 119.6 117M265.2 117.4C265.2 118.1 266.1 118 266.3 117.3 266.4 117 266.2 116.8 265.8 116.8 265.5 116.8 265.2 117.1 265.2 117.4M271.6 117.8C271.6 118.1 271.8 118.4 272 118.4 272.2 118.4 272.4 118.1 272.4 117.8 272.4 117.5 272.2 117.2 272 117.2 271.8 117.2 271.6 117.5 271.6 117.8M117.7 119.4C117.4 119.7 117.2 120.2 117.2 120.5 117.2 120.8 116.8 121.3 116.4 121.6 115.5 122.2 115.3 124.4 116.1 124.4 116.6 124.4 119.2 119.8 119.2 119.1 119.2 118.6 118.2 118.8 117.7 119.4M124.3 119.5C124 119.8 124.3 120.4 124.8 120.4 125 120.4 125.2 120.1 125.2 119.8 125.2 119.2 124.7 119 124.3 119.5M121.6 123.6C121.6 124.3 122.1 125.2 122.4 125 123 124.6 122.8 123.2 122.2 123.2 121.9 123.2 121.6 123.4 121.6 123.6M114 127.4C114 127.7 114.2 128 114.4 128 114.6 128 114.8 127.7 114.8 127.4 114.8 127.1 114.6 126.8 114.4 126.8 114.2 126.8 114 127.1 114 127.4M270.8 127.8C270.8 128.1 271 128.4 271.2 128.4 271.4 128.4 271.6 128.1 271.6 127.8 271.6 127.5 271.4 127.2 271.2 127.2 271 127.2 270.8 127.5 270.8 127.8M113.2 129C113.2 129.3 113.5 129.6 113.8 129.6 114.5 129.6 114.4 128.7 113.7 128.5 113.4 128.4 113.2 128.6 113.2 129M271.6 129.4C271.6 129.8 271.8 130 272 129.9 272.3 129.8 272.5 129.6 272.5 129.4 272.5 129.2 272.3 129 272 128.9 271.8 128.8 271.6 129 271.6 129.4M272.4 131C272.4 131.4 272.6 131.6 272.8 131.5 273.1 131.4 273.3 131.2 273.3 131 273.3 130.8 273.1 130.6 272.8 130.5 272.6 130.4 272.4 130.6 272.4 131M278.7 131.1C278.2 131.5 278.4 132 279 132 279.3 132 279.6 131.7 279.6 131.4 279.6 130.8 279.1 130.6 278.7 131.1M117.9 131.5C117.6 131.8 117.9 132.4 118.4 132.4 118.6 132.4 118.8 132.1 118.8 131.8 118.8 131.2 118.3 131 117.9 131.5M111.6 132.6C111.6 133.9 112.5 133.7 112.7 132.5 112.8 131.9 112.6 131.6 112.2 131.6 111.8 131.6 111.6 132 111.6 132.6M273.2 132.6C273.2 133 273.4 133.2 273.6 133.1 273.9 133 274.1 132.8 274.1 132.6 274.1 132.4 273.9 132.2 273.6 132.1 273.4 132 273.2 132.2 273.2 132.6M279.5 132.7C279 133.1 279.2 133.6 279.8 133.6 280.1 133.6 280.4 133.3 280.4 133 280.4 132.4 279.9 132.2 279.5 132.7M274 134.2C274 134.9 274.9 134.8 275.1 134.1 275.2 133.8 275 133.6 274.6 133.6 274.3 133.6 274 133.9 274 134.2M110.8 134.8C110.8 135.2 110.6 135.6 110.4 135.6 110.2 135.6 110 136.2 110 136.8 110 138.4 110.9 138.2 111.1 136.7 111.2 136.1 111.4 135.6 111.6 135.6 111.8 135.6 112 135.2 112 134.8 112 134.4 111.7 134 111.4 134 111.1 134 110.8 134.4 110.8 134.8M280.3 134.3C279.8 134.7 280 135.2 280.6 135.2 280.9 135.2 281.2 134.9 281.2 134.6 281.2 134 280.7 133.8 280.3 134.3M116.1 135.7C116.3 136.4 117.2 136.5 117.2 135.8 117.2 135.5 116.9 135.2 116.6 135.2 116.2 135.2 116 135.4 116.1 135.7M274.8 135.8C274.8 136.5 275.7 136.4 275.9 135.7 276 135.4 275.8 135.2 275.4 135.2 275.1 135.2 274.8 135.5 274.8 135.8M281.1 135.9C280.8 136.2 281.1 136.8 281.6 136.8 281.8 136.8 282 136.5 282 136.2 282 135.6 281.5 135.4 281.1 135.9M275.6 137.4C275.6 138.1 276.5 138 276.7 137.3 276.8 137 276.6 136.8 276.2 136.8 275.9 136.8 275.6 137.1 275.6 137.4M281.9 137.5C281.6 137.8 281.9 138.4 282.4 138.4 282.6 138.4 282.8 138.1 282.8 137.8 282.8 137.2 282.3 137 281.9 137.5M276.4 139C276.4 139.4 276.6 139.6 276.9 139.5 277.6 139.3 277.7 138.4 277 138.4 276.7 138.4 276.4 138.7 276.4 139M108.9 139.4C108.2 140.1 108.2 142.4 108.9 142.4 109.2 142.4 109.6 141.7 109.9 140.9 110.5 138.9 110 138.1 108.9 139.4M282.7 139.1C282.4 139.4 282.7 140 283.2 140 283.4 140 283.6 139.7 283.6 139.4 283.6 138.8 283.1 138.6 282.7 139.1M283.5 140.7C283.2 141 283.5 141.6 284 141.6 284.2 141.6 284.4 141.3 284.4 141 284.4 140.4 283.9 140.2 283.5 140.7M113.9 141.9C113.7 142 113.6 142.5 113.6 143 113.6 143.5 113.4 144.1 113.2 144.2 113 144.3 113 144.8 113.1 145.2 113.5 146.6 114.8 145 114.8 143.1 114.8 141.7 114.5 141.3 113.9 141.9M107.6 144.4C107.6 144.9 107.8 145.2 108.1 145.1 108.4 145 108.6 144.7 108.6 144.4 108.6 144.1 108.4 143.8 108.1 143.7 107.8 143.6 107.6 143.9 107.6 144.4M105.7 149.8C105.1 150.5 105 152.8 105.6 152.8 106.1 152.8 106.8 151.1 106.8 150 106.8 149.1 106.4 149 105.7 149.8M111.4 150C111.1 150.9 111.4 151.6 112 151.6 112.2 151.6 112.4 151.1 112.4 150.4 112.4 149 111.8 148.8 111.4 150M110.5 152.5C110.7 153.2 111.6 153.3 111.6 152.6 111.6 152.3 111.3 152 111 152 110.6 152 110.4 152.2 110.5 152.5M289.6 153C289.6 153.3 289.9 153.6 290.2 153.6 290.5 153.6 290.8 153.3 290.8 153 290.8 152.7 290.5 152.4 290.2 152.4 289.9 152.4 289.6 152.7 289.6 153M284.4 154.2C284.4 154.6 284.6 154.8 284.8 154.7 285.1 154.6 285.3 154.4 285.3 154.2 285.3 154 285.1 153.8 284.8 153.7 284.6 153.6 284.4 153.8 284.4 154.2M104.4 154.6C104.4 154.9 104.7 155.2 105 155.2 105.7 155.2 105.6 154.3 104.9 154.1 104.6 154 104.4 154.2 104.4 154.6M290.7 154.3C290.2 154.7 290.4 155.2 291 155.2 291.3 155.2 291.6 154.9 291.6 154.6 291.6 154 291.1 153.8 290.7 154.3M109.9 154.7C109.6 155 109.9 155.6 110.4 155.6 110.6 155.6 110.8 155.3 110.8 155 110.8 154.4 110.3 154.2 109.9 154.7M285.2 155.8C285.2 156.2 285.4 156.4 285.6 156.3 285.9 156.2 286.1 156 286.1 155.8 286.1 155.6 285.9 155.4 285.6 155.3 285.4 155.2 285.2 155.4 285.2 155.8M291.6 156.2C291.6 156.5 291.8 156.8 292 156.8 292.2 156.8 292.4 156.5 292.4 156.2 292.4 155.9 292.2 155.6 292 155.6 291.8 155.6 291.6 155.9 291.6 156.2M286 157.4C286 158.1 286.9 158 287.1 157.3 287.2 157 287 156.8 286.6 156.8 286.3 156.8 286 157.1 286 157.4M108.8 158.4C108.8 159 108.6 159.7 108.4 159.8 107.8 160.2 107.9 162 108.6 162 109 162 109.2 161.6 109.2 160.8 109.2 160.1 109.4 159.6 109.6 159.6 109.8 159.6 110 159.1 110 158.4 110 157.6 109.8 157.2 109.4 157.2 109 157.2 108.8 157.6 108.8 158.4M102.5 159.4C101.9 160.1 101.8 163.3 102.4 163.1 102.9 163 104 160.3 104 159.3 104 158.6 103.1 158.7 102.5 159.4M294.7 161.5C294.4 161.8 294.7 162.4 295.2 162.4 295.4 162.4 295.6 162.1 295.6 161.8 295.6 161.2 295.1 161 294.7 161.5M107.3 162.9C107.5 163.6 108.4 163.7 108.4 163 108.4 162.7 108.1 162.4 107.8 162.4 107.4 162.4 107.2 162.6 107.3 162.9M290 164.6C290 165.3 290.9 165.2 291.1 164.5 291.2 164.2 291 164 290.6 164 290.3 164 290 164.3 290 164.6M296.8 165.8C296.8 166.1 297.1 166.4 297.4 166.4 297.7 166.4 298 166.1 298 165.8 298 165.5 297.7 165.2 297.4 165.2 297.1 165.2 296.8 165.5 296.8 165.8M138.4 167.2C138.4 167.5 138.7 167.9 139 168.2 139.6 168.9 140.4 169 140.4 168.4 140.4 168.1 140.1 167.7 139.8 167.4 139.2 166.7 138.4 166.6 138.4 167.2M99.6 169.2C99.6 169.6 99.4 170 99.2 170 99 170 98.8 170.5 98.8 171 98.8 171.6 99 172 99.4 172 99.8 172 100 171.6 100 171 100 170.5 100.2 169.9 100.4 169.8 101 169.4 100.9 168.4 100.2 168.4 99.9 168.4 99.6 168.8 99.6 169.2M268.3 168.7C268 169.2 268.4 171.2 268.8 171.2 269 171.2 269.2 170.6 269.2 169.8 269.2 168.5 268.7 168 268.3 168.7M300.3 171.1C300 171.4 300.3 172 300.8 172 301 172 301.2 171.7 301.2 171.4 301.2 170.8 300.7 170.6 300.3 171.1M294.8 172.6C294.8 173 295 173.2 295.2 173.1 295.5 173 295.7 172.8 295.7 172.6 295.7 172.4 295.5 172.2 295.2 172.1 295 172 294.8 172.2 294.8 172.6M301.2 173C301.2 173.3 301.4 173.6 301.6 173.6 301.8 173.6 302 173.3 302 173 302 172.7 301.8 172.4 301.6 172.4 301.4 172.4 301.2 172.7 301.2 173M301.7 174.9C301.9 176.1 302.8 176.3 302.8 175 302.8 174.4 302.6 174 302.2 174 301.8 174 301.6 174.3 301.7 174.9M96.9 175.4C96.2 176.2 96.3 177.6 97 177.6 97.4 177.6 97.9 176.5 98 175.3 98.1 174.8 97.4 174.8 96.9 175.4M102.4 176.4C102.4 176.8 102.7 177.2 103 177.2 103.3 177.2 103.6 176.8 103.6 176.4 103.6 176 103.3 175.6 103 175.6 102.7 175.6 102.4 176 102.4 176.4M140.4 177.3C140.2 178.8 140 208.7 140.2 211.7 140.8 221.2 141.2 215.2 141.2 196.6 141.2 183.9 141.1 177.2 140.8 177.2 140.6 177.2 140.4 177.2 140.4 177.3M101.3 178.6C100.6 180.1 100.7 182 101.4 182 101.8 182 102 181.6 102 180.8 102 180.1 102.2 179.6 102.4 179.6 102.6 179.6 102.8 179.2 102.8 178.6 102.8 177.3 101.9 177.3 101.3 178.6M134.8 185L134.8 192.4 132.2 192.4C130.2 192.4 129.6 192.5 129.7 192.9 129.8 193.2 130.8 193.4 132.8 193.4L135.8 193.4 135.9 192C136.2 189.6 135.5 177.6 135.2 177.6 135 177.6 134.8 180.9 134.8 185M263.6 182.8C263.6 186.8 263.7 187.6 264.2 187.6 264.9 187.6 265 183.5 264.5 179.9 264.1 176.5 263.6 177.9 263.6 182.8M95.6 181.2C95.6 183 95.7 183.6 96.1 183.5 96.8 183.3 96.7 179.1 96.1 178.9 95.7 178.8 95.6 179.5 95.6 181.2M302.7 179.1C302.5 179.2 302.4 179.7 302.4 180.1 302.4 182.6 298.9 187.1 295.9 188.5 291.6 190.5 287 192.3 284.8 192.9 284 193.1 282.8 193.4 282 193.6 281.2 193.9 278.3 194.4 275.4 194.7L270.2 195.4 270.3 214.2C270.4 224.5 270.6 235.2 270.8 237.8 271.3 244 271.3 252 270.8 253.4 270.7 254.1 270.3 255.4 270 256.4 268.2 262.4 263.6 268.4 259.1 270.6 252.2 273.9 240 273.4 233.2 269.5 222.3 263.2 214.1 261.6 206.2 264.3 199.7 266.5 193.3 269.3 189.8 271.6 188.2 272.6 187.4 273 185.1 274 183.6 274.5 179.9 274.5 179.3 273.9 178.9 273.6 178.7 273.6 178.4 273.9 177.8 274.4 182 278.8 183 278.8 183.3 278.8 183.6 279 183.6 279.2 183.6 279.4 184.9 279.6 186.8 279.6 188.7 279.6 190 279.4 190 279.2 190 279 190.4 278.8 190.8 278.8 191.2 278.8 191.6 278.6 191.6 278.4 191.6 278.2 191.9 278 192.3 278 192.7 278 193.3 277.6 193.6 277.2 193.9 276.8 194.5 276.4 194.9 276.4 195.3 276.4 195.6 276.2 195.6 276 195.6 275.8 196 275.6 196.4 275.6 196.8 275.6 197.2 275.4 197.2 275.2 197.2 275 197.6 274.8 198 274.8 198.4 274.8 198.8 274.6 198.8 274.4 198.8 274.2 199.2 274 199.6 274 200 274 200.4 273.8 200.4 273.6 200.4 273.4 200.8 273.2 201.2 273.2 201.6 273.2 202 273 202 272.8 202 272.6 202.5 272.4 203.2 272.4 203.9 272.4 204.4 272.2 204.4 272 204.4 271.8 204.8 271.6 205.2 271.6 205.6 271.6 206 271.4 206 271.2 206 271 206.5 270.8 207.2 270.8 207.9 270.8 208.4 270.6 208.4 270.4 208.4 270.2 208.8 270 209.2 270 209.6 270 210 269.8 210 269.6 210 269.4 210.7 269.2 211.6 269.2 212.5 269.2 213.2 269 213.2 268.8 213.2 268.6 215.3 268.4 218.8 268.4 222.3 268.4 224.4 268.6 224.4 268.8 224.4 269 225.1 269.2 226 269.2 226.9 269.2 227.6 269.4 227.6 269.6 227.6 269.8 228.1 270 228.8 270 229.5 270 230 270.2 230 270.4 230 270.6 230.4 270.8 230.8 270.8 231.2 270.8 231.6 271 231.6 271.2 231.6 271.4 232 271.6 232.4 271.6 232.8 271.6 233.2 271.8 233.2 272 233.2 272.2 233.6 272.4 234 272.4 234.4 272.4 234.8 272.6 234.8 272.8 234.8 273 235.2 273.2 235.6 273.2 236 273.2 236.4 273.4 236.4 273.6 236.4 273.8 236.8 274 237.2 274 237.6 274 238 274.2 238 274.4 238 274.6 238.4 274.8 238.8 274.8 239.2 274.8 239.6 275 239.6 275.2 239.6 275.4 240 275.6 240.4 275.6 240.8 275.6 241.2 275.8 241.2 276 241.2 276.2 241.6 276.4 242 276.4 242.4 276.4 242.8 276.6 242.8 276.8 242.8 277 243.5 277.2 244.4 277.2 245.3 277.2 246 277.4 246 277.6 246 277.9 248.4 278 252.4 278 256.4 278 258.8 277.9 258.8 277.6 258.8 277.4 259.3 277.2 260 277.2 260.7 277.2 261.2 277 261.2 276.8 261.2 276.6 261.7 276.4 262.4 276.4 263.1 276.4 263.6 276.2 263.6 276 263.6 275.8 263.9 275.6 264.2 275.6 265 275.6 269.2 271.4 269.2 270.7 269.2 270.4 269.6 269.9 270 269.6 270.4 269.3 270.8 268.7 270.8 268.3 270.8 267.9 271 267.6 271.2 267.6 271.4 267.6 271.6 267.2 271.6 266.8 271.6 266.4 271.8 266 272 266 272.2 266 272.4 265.5 272.4 264.8 272.4 264.1 272.6 263.6 272.8 263.6 273 263.6 273.2 263.1 273.2 262.4 273.2 261.7 273.4 261.2 273.6 261.2 273.9 261.2 274 257.5 274 250.8 274 244.1 273.9 240.4 273.6 240.4 273.3 240.4 273.2 233.3 273.2 220L273.2 199.6 279.2 199.6C282.9 199.6 285.2 199.4 285.2 199.2 285.2 199 285.9 198.8 286.8 198.8 287.7 198.8 288.4 198.6 288.4 198.4 288.4 198.2 288.9 198 289.6 198 290.3 198 290.8 197.8 290.8 197.6 290.8 197.4 291.3 197.2 292 197.2 292.7 197.2 293.2 197 293.2 196.8 293.2 196.6 293.7 196.4 294.4 196.4 295.1 196.4 295.6 196.2 295.6 196 295.6 195.8 296 195.6 296.4 195.6 296.8 195.6 297.2 195.4 297.2 195.2 297.2 195 297.6 194.8 298 194.8 298.4 194.8 298.8 194.6 298.8 194.4 298.8 194.2 299.3 194 299.8 194 300.9 194 304.4 190.8 304.4 189.8 304.4 189.5 304.6 189.2 304.8 189.2 305 189.2 305.2 187.6 305.2 185.2 305.2 182.8 305 181.2 304.8 181.2 304.6 181.2 304.4 180.9 304.4 180.6 304.4 179.6 303.2 178.5 302.7 179.1M104.1 184C104.2 184.3 104.4 184.5 104.6 184.5 104.8 184.5 105 184.3 105.1 184 105.2 183.8 105 183.6 104.6 183.6 104.2 183.6 104 183.8 104.1 184M105.6 184.8C105.6 185 105.9 185.2 106.2 185.2 106.5 185.2 106.8 185 106.8 184.8 106.8 184.6 106.5 184.4 106.2 184.4 105.9 184.4 105.6 184.6 105.6 184.8M289.3 185.6C289.4 185.9 289.6 186.1 289.8 186.1 290 186.1 290.2 185.9 290.3 185.6 290.4 185.4 290.2 185.2 289.8 185.2 289.4 185.2 289.2 185.4 289.3 185.6M97.2 186C97.2 186.7 99.1 188.4 99.8 188.4 100.1 188.4 100.4 188.6 100.4 188.8 100.4 189 100.7 189.2 101 189.2 101.7 189.2 103.6 190.9 103.6 191.6 103.6 192.4 104.7 193.2 105.7 193.2 106.2 193.2 106.9 193.6 107.2 194 107.6 194.6 108.2 194.8 109.3 194.8 110.1 194.8 110.8 195 110.8 195.2 110.8 195.4 111.2 195.6 111.6 195.6 112 195.6 112.4 195.8 112.4 196 112.4 196.2 112.8 196.4 113.2 196.4 113.6 196.4 114 196.6 114 196.8 114 197 114.5 197.2 115.2 197.2 115.9 197.2 116.4 197.4 116.4 197.6 116.4 197.8 116.8 198 117.2 198 117.6 198 118 198.2 118 198.4 118 198.6 118.5 198.8 119.2 198.8 119.9 198.8 120.4 199 120.4 199.2 120.4 199.4 120.9 199.6 121.6 199.6 122.3 199.6 122.8 199.8 122.8 200 122.8 200.2 123.3 200.4 124 200.4 124.7 200.4 125.2 200.6 125.2 200.8 125.2 201 125.7 201.2 126.4 201.2 127.1 201.2 127.6 201.4 127.6 201.6 127.6 201.8 128.3 202 129.2 202 130.1 202 130.8 202.2 130.8 202.4 130.8 202.6 131.9 202.8 133.2 202.8L135.6 202.8 135.6 201C135.6 198.8 135.3 198.6 131.2 198 124.6 197.1 116.8 194.9 110.6 192.2 109.9 191.9 108.6 191.3 107.6 191 106.6 190.6 105.3 189.9 104.6 189.5 103.9 189.2 102.5 188.4 101.4 187.8 100.3 187.2 99.1 186.5 98.8 186.2 98 185.5 97.2 185.4 97.2 186M111.2 187.2C111.2 187.4 111.5 187.7 111.9 187.8 112.3 188 112.9 188.2 113.3 188.4 114.3 189 114.8 188.9 114.8 188.2 114.8 187.9 114.4 187.6 114 187.6 113.6 187.6 113.2 187.4 113.2 187.2 113.2 187 112.8 186.8 112.2 186.8 111.7 186.8 111.2 187 111.2 187.2M115.3 188.9C115.7 190 122 191.6 122 190.6 122 190.3 121.6 190 121.2 190 120.8 190 120.4 189.8 120.4 189.6 120.4 189.4 119.9 189.2 119.2 189.2 118.5 189.2 118 189 118 188.8 118 188.6 117.4 188.4 116.6 188.4 115.6 188.4 115.2 188.6 115.3 188.9M125.7 192.1C126 192.9 128.4 193 128.4 192.2 128.4 191.8 128 191.6 127 191.6 126 191.6 125.6 191.8 125.7 192.1M265.2 229.2C265.2 233.7 265.6 235.3 266.2 233.7 266.6 232.7 266 224.4 265.5 224.4 265.4 224.4 265.2 226.5 265.2 229.2M141.2 236C141.2 237.5 141.3 237.6 141.8 237.2 142.1 236.9 142.4 236.4 142.4 236 142.4 235.6 142.1 235.1 141.8 234.8 141.3 234.4 141.2 234.5 141.2 236M141.2 238.8C141.2 239.2 141.4 239.6 141.6 239.6 141.8 239.6 142 239.3 142 239 142 238.7 141.8 238.3 141.6 238.2 141.4 238.1 141.2 238.3 141.2 238.8M136.4 245.2C136.4 245.6 136.6 246 136.8 246 137 246 137.2 245.6 137.2 245.2 137.2 244.8 137 244.4 136.8 244.4 136.6 244.4 136.4 244.8 136.4 245.2M141.9 247.9C141.5 248.2 141.5 250.1 141.8 251 142.3 252.2 142.8 251.6 142.8 249.6 142.8 247.7 142.5 247.2 141.9 247.9M155.7 254.5C155.8 254.8 156.2 255 156.6 255 157 255 157.4 254.8 157.5 254.5 157.6 254.2 157.3 254 156.6 254 155.9 254 155.6 254.2 155.7 254.5M162.5 254.5C162.6 254.8 163 255 163.4 255 163.8 255 164.2 254.8 164.3 254.5 164.4 254.2 164.1 254 163.4 254 162.7 254 162.4 254.2 162.5 254.5M137.5 256.2C137.1 256.7 137.1 272.4 137.6 272.4 138.3 272.4 138.4 271 138.4 264.3 138.3 257.7 138.1 255.6 137.5 256.2M207.7 258.5C207.8 258.8 208.3 259 208.8 259 209.3 259 209.8 258.8 209.9 258.5 210 258.2 209.6 258 208.8 258 208 258 207.6 258.2 207.7 258.5M217.4 258.4C217.2 258.8 218.1 259.2 219.4 259.2 220 259.2 220.4 259 220.4 258.6 220.4 257.9 217.8 257.7 217.4 258.4M204.5 259.3C204.6 259.6 204.9 259.8 205.2 259.8 205.5 259.8 205.8 259.6 205.9 259.3 206 259 205.7 258.8 205.2 258.8 204.7 258.8 204.4 259 204.5 259.3M222.4 259.4C222.4 259.8 222.6 260 222.9 259.9 223.6 259.7 223.7 258.8 223 258.8 222.7 258.8 222.4 259.1 222.4 259.4M156.2 259.9C152.6 262.2 150.8 270.6 152.4 277.7 156.9 298 154.4 307.8 144.4 308.8 141.5 309.1 141.4 309.8 143.8 312.2L145.6 314 148.6 314C150.3 314 151.6 313.8 151.6 313.6 151.6 313.4 151.9 313.2 152.2 313.2 153 313.2 155.6 310.6 155.6 309.8 155.6 309.5 155.8 309.2 156 309.2 156.2 309.2 156.4 308.8 156.4 308.4 156.4 308 156.6 307.6 156.8 307.6 157.1 307.6 157.2 304.8 157.2 300 157.2 295.2 157.1 292.4 156.8 292.4 156.6 292.4 156.4 291.7 156.4 290.8 156.4 289.9 156.2 289.2 156 289.2 155.8 289.2 155.6 288.3 155.6 287.2 155.6 286.1 155.4 285.2 155.2 285.2 155 285.2 154.8 282.9 154.8 279.2 154.8 275.5 155 273.2 155.2 273.2 155.4 273.2 155.6 272.7 155.6 272 155.6 271.3 155.8 270.8 156 270.8 156.2 270.8 156.4 270.4 156.4 270 156.4 269.6 156.6 269.2 156.8 269.2 157 269.2 157.2 268.9 157.2 268.6 157.2 267.8 159.8 265.2 160.6 265.2 160.9 265.2 161.2 265 161.2 264.8 161.2 264.6 162.7 264.4 165 264.4 169.4 264.4 169.8 264.1 167.7 262 165.1 259.4 158.9 258.3 156.2 259.9M172.8 261C172.8 261.3 173.1 261.6 173.4 261.6 173.7 261.6 174 261.3 174 261 174 260.7 173.7 260.4 173.4 260.4 173.1 260.4 172.8 260.7 172.8 261M200.5 260.8C200.6 261.1 200.8 261.3 201 261.3 201.2 261.3 201.4 261.1 201.5 260.8 201.6 260.6 201.4 260.4 201 260.4 200.6 260.4 200.4 260.6 200.5 260.8M227.3 260.8C227.4 261.1 227.6 261.3 227.8 261.3 228 261.3 228.2 261.1 228.3 260.8 228.4 260.6 228.2 260.4 227.8 260.4 227.4 260.4 227.2 260.6 227.3 260.8M198.1 261.7C198.3 262.4 199.2 262.5 199.2 261.8 199.2 261.5 198.9 261.2 198.6 261.2 198.2 261.2 198 261.4 198.1 261.7M228.8 261.6C228.8 261.8 229.1 262 229.4 262 229.7 262 230 261.8 230 261.6 230 261.4 229.7 261.2 229.4 261.2 229.1 261.2 228.8 261.4 228.8 261.6M147.6 262.6C147.6 262.9 147.9 263.2 148.2 263.2 148.9 263.2 148.8 262.3 148.1 262.1 147.8 262 147.6 262.2 147.6 262.6M230.5 262.4C230.6 262.7 230.8 262.9 231 262.9 231.2 262.9 231.4 262.7 231.5 262.4 231.6 262.2 231.4 262 231 262 230.6 262 230.4 262.2 230.5 262.4M194.1 263.3C194.3 264 195.2 264.1 195.2 263.4 195.2 263.1 194.9 262.8 194.6 262.8 194.2 262.8 194 263 194.1 263.3M146.8 265.8C146.8 267.2 147.3 267.7 147.8 266.6 148.2 265.4 148 264.4 147.4 264.4 147 264.4 146.8 264.8 146.8 265.8M189.3 265.6C189.4 265.9 189.6 266.1 189.8 266.1 190 266.1 190.2 265.9 190.3 265.6 190.4 265.4 190.2 265.2 189.8 265.2 189.4 265.2 189.2 265.4 189.3 265.6M170 266.2C170 266.6 170.2 266.8 170.4 266.7 170.7 266.6 170.9 266.4 170.9 266.2 170.9 266 170.7 265.8 170.4 265.7 170.2 265.6 170 265.8 170 266.2M238.4 266.6C238.4 267.3 239.3 267.2 239.5 266.5 239.6 266.2 239.4 266 239 266 238.7 266 238.4 266.3 238.4 266.6M185.3 268C185.4 268.3 185.6 268.5 185.8 268.5 186 268.5 186.2 268.3 186.3 268 186.4 267.8 186.2 267.6 185.8 267.6 185.4 267.6 185.2 267.8 185.3 268M183.7 268.9C183.9 269.6 184.8 269.7 184.8 269 184.8 268.7 184.5 268.4 184.2 268.4 183.8 268.4 183.6 268.6 183.7 268.9M176.7 273.1C176.2 273.5 176.4 274 177 274 177.3 274 177.6 273.8 177.6 273.6 177.6 273.1 177 272.8 176.7 273.1M141.8 276.4C141.5 277.3 141.8 278 142.4 278 142.6 278 142.8 277.5 142.8 276.8 142.8 275.4 142.2 275.2 141.8 276.4M146.8 277.8C146.8 279.1 147 279.6 147.4 279.6 148 279.6 148.2 277.9 147.8 276.6 147.3 275.4 146.8 276 146.8 277.8M147.6 282.4C147.6 283.2 147.8 283.6 148.2 283.6 148.7 283.6 148.8 283.3 148.7 282.5 148.5 281 147.6 280.8 147.6 282.4M140.8 283.2C140.8 284 141 284.4 141.4 284.4 141.8 284.4 142 284 142 283.2 142 282.4 141.8 282 141.4 282 141 282 140.8 282.4 140.8 283.2M135.9 282.7C135.4 283.2 135.6 284 136.2 284 136.9 284 137 283.7 136.5 282.9 136.3 282.6 136 282.5 135.9 282.7M140.2 286.4C139.9 286.9 140.3 287.6 140.8 287.6 141 287.6 141.2 287.2 141.2 286.8 141.2 286 140.6 285.7 140.2 286.4M134 290.2C134 290.9 134.2 291.2 134.5 291.1 134.8 291 135 290.6 135 290.2 135 289.8 134.8 289.4 134.5 289.3 134.2 289.2 134 289.5 134 290.2M139.2 290.6C139.2 291.2 139.4 291.6 139.8 291.6 140.2 291.6 140.4 291.2 140.4 290.6 140.4 290 140.2 289.6 139.8 289.6 139.4 289.6 139.2 290 139.2 290.6M149.2 293.8C149.2 296.7 149.3 297.6 149.7 297.5 150.1 297.4 150.2 296.3 150.2 293.8 150.2 291.3 150.1 290.2 149.7 290.1 149.3 290 149.2 290.9 149.2 293.8M134 302.2C134 302.6 134.2 302.8 134.4 302.7 134.7 302.6 134.9 302.4 134.9 302.2 134.9 302 134.7 301.8 134.4 301.7 134.2 301.6 134 301.8 134 302.2M140.4 302.6C140.4 302.9 140.7 303.2 141 303.3 141.3 303.5 141.4 303.3 141.3 302.8 141.1 301.9 140.4 301.7 140.4 302.6" fill="#876a6a"></path><path d="M236 85.8C236 86.2 235.7 86.3 234.6 86.1 233.7 86 233.2 86.1 233.2 86.3 233.2 86.6 232.9 86.8 232.6 86.8 231.6 86.8 224.4 94.3 224.6 95 224.8 95.4 224.5 95.7 223.8 96.1 223.3 96.3 222.8 96.8 222.8 97.1 222.8 97.4 222.3 98.2 221.6 98.8 220.9 99.4 220.4 100.1 220.4 100.4 220.4 101 218.6 102.8 218 102.8 217.4 102.8 216.7 103.5 216.1 104.7 215.8 105.3 215.4 105.5 214.8 105.3 214.4 105.2 214 105.3 214 105.6 214 105.8 213.6 106 213.2 106 212.8 106 212.4 106.2 212.4 106.4 212.4 106.6 212 106.8 211.6 106.8 211.2 106.8 210.8 107 210.8 107.2 210.8 107.4 210.4 107.6 210 107.6 209.6 107.6 209.2 107.8 209.2 108 209.2 108.2 208.7 108.4 208 108.4 207.3 108.4 206.8 108.6 206.8 108.8 206.8 109 206.3 109.2 205.6 109.2 204.9 109.2 204.4 109.4 204.4 109.6 204.4 109.8 203.7 110 202.8 110 201.9 110 201.2 110.2 201.2 110.4 201.2 110.7 198.7 110.8 194.4 110.8 190.1 110.8 187.6 110.7 187.6 110.4 187.6 110.2 187.1 110 186.4 110 185.8 110 185.1 109.8 185 109.6 184.8 109.3 184.1 109.2 183.3 109.3 182.5 109.3 181.8 109.2 181.6 108.9 181.5 108.6 181 108.5 180.7 108.6 180.2 108.8 180 108.7 180 108.2 180 107.8 179.8 107.6 179.4 107.7 179.1 107.9 178.6 107.6 178.4 107.1 177.8 106 175.6 103.8 174.5 103.3 173.9 103 173.7 102.6 173.9 102 174 101.6 173.9 101.2 173.6 101.2 173.4 101.2 173.2 100.8 173.2 100.4 173.2 99.9 172.8 99.5 172.2 99.4 171.3 99.1 171.2 98.9 171.4 98.2 171.6 97.5 171.4 97.2 170.7 97 169.6 96.6 169.2 96.1 169.2 94.9 169.2 94.3 169 94 168.4 94 167.2 94 166.4 93.6 166.4 93 166.4 92.7 166.1 92.4 165.8 92.4 165.5 92.4 165.2 92.2 165.2 92 165.2 91.7 164.8 91.6 164.2 91.8 163.5 91.9 163.2 91.9 163.2 91.4 163.2 90.9 162.4 90.8 158 90.8 153.7 90.8 152.8 90.9 152.8 91.4 152.8 91.8 152.5 91.9 151.6 91.7 150.6 91.5 150.4 91.6 150.4 92.2 150.4 92.7 150.2 92.8 149.6 92.6 149.1 92.5 148.8 92.5 148.8 92.8 148.8 93 148.4 93.2 147.8 93.2 147.3 93.2 146.8 93.4 146.8 93.6 146.8 93.8 146.5 94 146.2 94 145.9 94 145.6 94.3 145.5 94.6 145.3 94.9 144.9 95.1 144.4 94.9 144 94.8 143.6 94.9 143.6 95.2 143.6 95.4 143.2 95.6 142.8 95.6 142.3 95.6 141.9 96 141.8 96.6 141.6 97.4 141.3 97.6 140.7 97.5 139.8 97.2 139.2 97.7 138.4 99.1 138.1 99.7 137.7 100 137.3 99.8 136.7 99.6 135.2 100.9 135.2 101.8 135.2 102 134.3 102.8 133.3 103.6 130.9 105.4 124.5 111.8 123.2 113.7 122.7 114.5 121.8 115.3 121.3 115.4 120.6 115.6 120.4 115.8 120.6 116.6 120.8 117.3 120.7 117.5 119.8 117.8 119 118 118.8 118.2 119 118.7 119.3 119.5 116.8 124.4 116.1 124.4 115.8 124.4 115.6 124.8 115.6 125.2 115.6 125.6 115.4 126 115.2 126 115 126 114.8 126.5 114.8 127 114.8 127.6 114.6 128 114.4 128 114.1 128 114.1 128.3 114.2 128.8 114.4 129.4 114.3 129.6 113.8 129.6 113.5 129.6 113.2 129.9 113.2 130.2 113.2 130.5 113 130.8 112.8 130.8 112.6 130.8 112.5 131.3 112.7 132 112.8 132.8 112.7 133.3 112.3 133.4 111.9 133.6 111.8 134 111.9 134.6 112 135.2 111.9 135.6 111.6 135.6 111.4 135.6 111.2 136.1 111.2 136.6 111.2 137.2 110.9 137.7 110.6 137.9 110.3 138 110 138.5 110.1 138.9 110.2 140.4 109.5 142.4 108.9 142.4 108.4 142.4 108.4 142.7 108.5 143.6 108.7 144.5 108.6 144.9 108.2 145.1 107.9 145.2 107.6 145.6 107.6 146 107.6 146.5 107.4 146.8 107.2 146.8 107.1 146.8 106.8 148 106.7 149.4 106.6 151.4 106.4 152.2 105.8 152.6 105.3 153 105.2 153.4 105.4 154.2 105.5 154.9 105.5 155.2 105 155.2 104.6 155.2 104.4 155.6 104.4 156.2 104.4 156.8 104.2 157.2 104 157.2 103.7 157.2 103.6 157.7 103.7 158.5 104.1 160.2 103.1 162.9 102 163.3 101.4 163.7 101.2 164.1 101.2 165.7 101.2 166.7 101 167.6 100.8 167.6 100.6 167.6 100.5 168 100.6 168.6 100.8 169.1 100.7 169.6 100.4 169.8 100.2 169.9 100 170.5 100 171 100 171.6 99.8 172 99.4 172 99 172 98.8 172.4 98.8 173 98.8 173.6 98.6 174 98.4 174 98.1 174 98 174.3 98 174.7 98.2 175.8 97.6 177.6 97 177.6 96 177.6 96.3 185.1 97.4 185.4 97.8 185.6 98.5 185.9 98.8 186.2 99.1 186.5 100.3 187.2 101.4 187.8 102.5 188.4 103.9 189.2 104.6 189.5 105.3 189.9 106.6 190.6 107.6 191 108.6 191.3 109.9 191.9 110.6 192.2 116.8 194.9 124.6 197.1 131.2 198 133.1 198.3 134.8 198.7 135.1 198.9 135.7 199.4 135.8 227.6 135.2 227.6 135 227.6 134.8 228 134.8 228.6 134.8 229.1 135 229.7 135.2 229.8 135.4 229.9 135.6 232.3 135.6 235.6 135.6 239.1 135.8 241.2 136 241.2 136.2 241.2 136.4 241.9 136.4 242.8 136.4 243.7 136.6 244.4 136.8 244.4 137 244.4 137.2 246.7 137.2 250.4 137.2 253.8 137.4 256.4 137.6 256.2 138.6 255.6 138.8 271.1 137.8 272.1 137.4 272.6 137.2 273.7 137.2 276.2 137.2 278.4 137 279.6 136.8 279.6 136.5 279.6 136.4 280.3 136.5 281.8 136.6 283.5 136.5 284 136.1 284 135.8 284 135.6 284.5 135.6 285.4 135.6 286.2 135.4 286.8 135.1 286.8 134.8 286.8 134.8 287.4 134.9 288.8 135.1 290.4 135 290.9 134.6 291.1 133.8 291.4 133.7 301.4 134.6 301.7 134.9 301.9 135 302.3 134.9 302.9 134.7 304.3 138.6 308.4 140.2 308.4 140.7 308.4 141.2 308.6 141.2 308.8 141.2 309.4 146.1 308.7 147.9 307.9 155.1 304.6 156.4 295.7 152.4 277.7 152.2 276.8 152 274 152 271.4 152 261.2 155.8 257.5 163.9 259.8 167 260.7 168.9 262.5 169.2 264.8 169.2 265 169.6 265.3 170.2 265.5 170.9 265.8 171.1 266.2 170.9 266.6 170.8 267 171.1 267.5 171.6 268 172 268.4 172.4 268.9 172.4 269.2 172.4 270 176 273.3 176.6 273 177 272.9 177.3 273.1 177.5 273.4 177.6 273.8 178 273.9 178.4 273.8 178.8 273.7 179.2 273.8 179.4 274 179.7 274.5 183.7 274.5 185.1 274 187.4 273 188.2 272.6 189.8 271.6 192.5 269.9 195.2 268.5 199.6 266.8 213.5 261.3 219.8 261.8 233.2 269.5 240 273.4 252.2 273.9 259.1 270.6 263.6 268.4 268.2 262.4 270 256.4 270.3 255.4 270.7 254.1 270.8 253.4 271.3 252 271.3 244 270.8 237.8 270.6 235.2 270.4 224.5 270.3 214.2L270.2 195.4 275.4 194.7C278.3 194.4 281.3 193.8 282.2 193.6 283.1 193.4 284.3 193 285 192.8 287 192.3 291.9 190.3 295.8 188.6 300.5 186.4 304.8 177.8 302.2 175.8 301.7 175.5 301.6 175 301.7 174.5 301.8 174 301.8 173.6 301.6 173.6 301.4 173.6 301.2 173.3 301.2 172.8 301.2 172.4 300.9 172 300.6 171.9 300.3 171.7 300.1 171.3 300.3 170.8 300.4 170.4 300.3 170 300 170 299.8 170 299.6 169.7 299.6 169.3 299.6 168.9 299.2 168.3 298.8 168 298.4 167.7 298 167.2 298 166.9 298 166.6 297.7 166.4 297.4 166.4 296.9 166.4 296.8 166.2 297 165.4 297.1 164.8 297 164.4 296.8 164.4 296.6 164.4 296.4 164.1 296.4 163.7 296.4 163.3 296 162.7 295.4 162.5 294.7 162.2 294.5 161.8 294.7 161.2 294.8 160.8 294.7 160.4 294.4 160.4 294.2 160.4 294 160 294 159.6 294 159.2 293.8 158.8 293.6 158.8 293.4 158.8 293.2 158.5 293.2 158 293.2 157.6 292.8 157.1 292.4 157 292 156.9 291.6 156.4 291.6 156 291.6 155.5 291.3 155.2 291 155.2 290.5 155.2 290.4 155 290.6 154.4 290.8 153.8 290.7 153.6 290.2 153.6 289.7 153.6 289.6 153.4 289.8 152.6 289.9 152 289.8 151.6 289.6 151.6 289.4 151.6 289.2 151.2 289.2 150.8 289.2 150.4 289 150 288.8 150 288.6 150 288.4 149.6 288.4 149.2 288.4 148.8 288.2 148.4 288 148.4 287.8 148.4 287.6 148 287.6 147.6 287.6 147.2 287.4 146.8 287.2 146.8 287 146.8 286.8 146.5 286.8 146.1 286.8 145.7 286.4 145.1 286 144.8 285.6 144.5 285.2 143.9 285.2 143.5 285.2 143.1 285 142.8 284.8 142.8 284.6 142.8 284.4 142.5 284.4 142.2 284.4 141.9 284.1 141.6 283.8 141.5 283.5 141.3 283.3 141 283.4 140.7 283.5 140.4 283.4 140 283 139.9 282.7 139.7 282.5 139.4 282.6 139.1 282.7 138.8 282.6 138.4 282.2 138.3 281.9 138.1 281.7 137.8 281.8 137.5 281.9 137.2 281.8 136.8 281.4 136.7 281.1 136.5 280.9 136.2 281.1 135.8 281.2 135.4 281.1 135.2 280.6 135.2 280.1 135.2 280 135 280.2 134.4 280.4 133.8 280.3 133.6 279.8 133.6 279.3 133.6 279.2 133.4 279.4 132.8 279.6 132.2 279.5 132 279 132 278.5 132 278.4 131.8 278.6 131 278.8 130.4 278.7 130 278.4 130 278.2 130 278 129.6 278 129.2 278 128.8 277.8 128.4 277.6 128.4 277.4 128.4 277.2 128 277.2 127.6 277.2 127.2 277 126.8 276.8 126.8 276.6 126.8 276.4 126.4 276.4 126 276.4 125.6 276.2 125.2 276 125.2 275.8 125.2 275.6 124.8 275.6 124.4 275.6 124 275.4 123.6 275.2 123.6 275 123.6 274.8 123.2 274.8 122.8 274.8 122.4 274.6 122 274.4 122 274.2 122 274 121.7 274 121.3 274 120.9 273.6 120.3 273.2 120 272.8 119.7 272.4 119.2 272.4 118.9 272.4 118.6 272.2 118.4 272 118.4 271.8 118.4 271.6 118.1 271.6 117.6 271.6 117.2 271.3 116.8 271 116.7 270.7 116.5 270.5 116.2 270.7 115.8 270.8 115.4 270.7 115.2 270.2 115.2 269.7 115.2 269.6 115 269.8 114.2 270 113.6 269.9 113.2 269.6 113.2 269.4 113.2 269.2 112.8 269.2 112.4 269.2 112 269 111.6 268.8 111.6 268.6 111.6 268.4 111.3 268.4 110.8 268.4 110.4 268 109.9 267.6 109.8 267.2 109.7 266.8 109.2 266.8 108.8 266.8 108.3 266.5 108 266.2 108 265.7 108 265.7 107.7 265.8 107 266 106.4 265.9 106 265.6 106 265.4 106 265.2 105.7 265.2 105.3 265.2 104.9 264.8 104.3 264.2 104.1 263.5 103.8 263.3 103.4 263.5 102.8 263.6 102.4 263.5 102 263.2 102 263 102 262.8 101.6 262.8 101.2 262.8 100.7 262.4 100.3 261.8 100.2 261 100 260.8 99.7 260.9 99.1 261.2 98.2 259.9 96.8 259 96.8 258.5 96.8 257.2 94.7 257.2 93.9 257.2 93.6 256.7 93.2 256.1 93.1 254.7 92.8 253 91.3 252.6 90.1 252.4 89.4 252.1 89.2 251.4 89.4 250.7 89.6 250.4 89.5 250.4 89.1 250.4 88.1 248.8 86.8 247.7 86.8 247.2 86.8 246.8 86.6 246.8 86.3 246.8 86 246.3 86 245.2 86.2 244 86.4 243.5 86.3 243.3 85.8 243 84.9 236 84.9 236 85.8M241.6 90.2C241.9 90.5 242.7 90.8 243.4 90.8 244.2 90.8 244.8 91 244.8 91.2 244.8 91.5 245.1 91.6 245.4 91.5 245.8 91.3 246.1 91.5 246.3 91.8 246.4 92.1 246.7 92.4 246.9 92.4 247.1 92.4 248 93.1 248.8 94 249.6 94.9 250.7 95.6 251.1 95.6 252.2 95.6 254.8 98.3 254.8 99.5 254.8 100 255 100.4 255.2 100.4 255.4 100.4 255.6 100.7 255.7 101.1 255.8 101.5 256.2 101.8 256.6 101.8 257.2 101.8 257.4 102 257.3 102.6 257.2 103.2 257.5 103.6 258.2 103.9 258.9 104.2 259.1 104.6 258.9 105.2 258.8 105.6 258.9 106 259.2 106 259.4 106 259.6 106.3 259.6 106.7 259.6 107.1 260 107.7 260.4 108 260.8 108.3 261.2 108.8 261.2 109.1 261.2 109.4 261.5 109.6 261.8 109.6 262.3 109.6 262.3 109.9 262.2 110.6 262 111.2 262.1 111.6 262.4 111.6 262.6 111.6 262.8 111.9 262.8 112.3 262.8 112.7 263.2 113.3 263.6 113.6 264 113.9 264.4 114.4 264.4 114.6 264.4 114.9 264.7 115.2 265 115.3 265.3 115.5 265.5 115.8 265.4 116.2 265.2 116.6 265.3 116.8 265.8 116.8 266.3 116.8 266.4 117 266.2 117.8 266 118.4 266.1 118.8 266.4 118.8 266.6 118.8 266.8 119.2 266.8 119.6 266.8 120 267 120.4 267.2 120.4 267.4 120.4 267.6 120.8 267.6 121.2 267.6 121.6 267.8 122 268 122 268.2 122 268.4 122.4 268.4 122.8 268.4 123.2 268.6 123.6 268.8 123.6 269 123.6 269.2 123.9 269.2 124.3 269.2 124.7 269.6 125.3 270 125.6 270.4 125.9 270.8 126.4 270.8 126.7 270.8 127 271 127.2 271.2 127.2 271.4 127.2 271.6 127.5 271.6 128 271.6 128.4 271.9 128.8 272.2 128.9 272.5 129.1 272.7 129.4 272.6 129.7 272.5 130 272.6 130.4 273 130.5 273.3 130.7 273.5 131 273.4 131.3 273.3 131.6 273.4 132 273.8 132.1 274.1 132.3 274.3 132.6 274.2 133 274 133.4 274.1 133.6 274.6 133.6 275.1 133.6 275.2 133.8 275 134.4 274.8 135 274.9 135.2 275.4 135.2 275.9 135.2 276 135.4 275.8 136 275.6 136.6 275.7 136.8 276.2 136.8 276.7 136.8 276.8 137 276.6 137.6 276.4 138.2 276.5 138.4 277 138.4 277.5 138.4 277.6 138.6 277.4 139.4 277.2 140 277.3 140.4 277.6 140.4 277.8 140.4 278 140.8 278 141.2 278 141.6 278.2 142 278.4 142 278.6 142 278.8 142.4 278.8 142.8 278.8 143.2 279 143.6 279.2 143.6 279.4 143.6 279.6 144 279.6 144.4 279.6 144.8 279.8 145.2 280 145.2 280.2 145.2 280.4 145.6 280.4 146 280.4 146.4 280.6 146.8 280.8 146.8 281 146.8 281.2 147.2 281.2 147.6 281.2 148 281.4 148.4 281.6 148.4 281.8 148.4 282 148.8 282 149.2 282 149.6 282.2 150 282.4 150 282.6 150 282.8 150.3 282.8 150.7 282.8 151.1 283.2 151.7 283.6 152 284 152.3 284.4 152.8 284.4 153 284.4 153.3 284.7 153.6 285 153.7 285.3 153.9 285.5 154.2 285.4 154.5 285.3 154.8 285.4 155.2 285.8 155.3 286.1 155.5 286.3 155.8 286.2 156.2 286 156.6 286.1 156.8 286.6 156.8 287.1 156.8 287.2 157 287 157.8 286.8 158.4 286.9 158.8 287.2 158.8 287.4 158.8 287.6 159.2 287.6 159.6 287.6 160 287.8 160.4 288 160.4 288.2 160.4 288.4 160.7 288.4 161.1 288.4 161.5 288.8 162.1 289.2 162.4 289.6 162.7 290 163.2 290 163.5 290 163.8 290.3 164 290.6 164 291.1 164 291.1 164.3 291 165 290.8 165.6 290.9 166 291.2 166 291.4 166 291.6 166.3 291.6 166.7 291.6 167.1 292 167.7 292.4 168 292.8 168.3 293.2 168.9 293.2 169.3 293.2 169.7 293.4 170 293.6 170 293.8 170 294 170.3 294 170.7 294 171.1 294.4 171.7 295 171.9 295.7 172.2 295.9 172.6 295.7 173.2 295.6 173.6 295.7 174 296 174 296.2 174 296.4 174.4 296.4 174.8 296.4 175.2 296.6 175.6 296.8 175.6 297 175.6 297.2 176.7 297.2 178.2 297.2 180.9 295.5 183.6 293.8 183.6 293.5 183.6 293.2 183.8 293.2 184 293.2 184.2 292.8 184.4 292.4 184.4 292 184.4 291.6 184.6 291.6 184.8 291.6 185 291.3 185.2 291 185.2 290.7 185.2 290.4 185.4 290.3 185.7 290.1 186.1 289.6 186.2 288.8 186.1 288.1 186 287.6 186.1 287.6 186.4 287.6 186.6 287.1 186.8 286.4 186.8 285.7 186.8 285.2 187 285.2 187.2 285.2 187.4 284.7 187.6 284 187.6 283.3 187.6 282.8 187.8 282.8 188 282.8 188.2 282.3 188.4 281.6 188.4 280.9 188.4 280.4 188.6 280.4 188.8 280.4 189 279.5 189.2 278.4 189.2 277.3 189.2 276.4 189.4 276.4 189.6 276.4 189.8 275.1 190 273.2 190L270 190 270 188.8C270 188.1 269.8 187.6 269.6 187.6 269.3 187.6 269.2 184.6 269.2 179.4 269.2 173.9 269.1 171.2 268.8 171.1 268.5 171 268.3 170.3 268.3 169.4 268.2 167.4 265.2 165.2 265.2 167.2 265.2 167.4 264.8 167.6 264.4 167.6 263.4 167.6 263.1 177.8 264.1 178.1 264.5 178.2 264.6 179.9 264.6 184.5 264.6 188 264.7 190.8 264.9 190.8 265.1 190.8 265.2 198.4 265.2 207.6 265.2 216.9 265.4 224.4 265.5 224.4 266 224.4 266.6 232.7 266.2 233.7 266 234.1 265.8 234.3 265.6 234.2 265.4 234.1 265.2 234.9 265.2 236 265.2 237.1 265.4 238 265.6 238 265.9 238 266 240.8 266 245.6 266 250.4 265.9 253.2 265.6 253.2 265.4 253.2 265.2 253.7 265.2 254.4 265.2 255.1 265 255.6 264.8 255.6 264.6 255.6 264.4 256.1 264.4 256.7 264.4 257.4 264.1 258.1 263.6 258.4 263.2 258.7 262.8 259.3 262.8 259.7 262.8 260.1 262.6 260.4 262.4 260.4 262.2 260.4 262 260.7 262 261 262 261.8 257.8 266 257 266 256.7 266 256.4 266.2 256.4 266.4 256.4 266.6 255.9 266.8 255.2 266.8 254.5 266.8 254 267 254 267.2 254 267.5 251.6 267.6 247.6 267.6 243.1 267.6 241.2 267.5 241.2 267.1 241.2 266.9 240.7 266.8 239.8 266.9 238.7 267.1 238.4 267 238.4 266.6 238.4 266.3 238.1 266 237.8 266 237.5 266 237.2 265.8 237.2 265.6 237.2 265.4 236.8 265.2 236.4 265.2 236 265.2 235.6 265 235.6 264.8 235.6 264.6 235.2 264.4 234.8 264.4 234.4 264.4 234 264.2 234 264 234 263.8 233.6 263.6 233.2 263.6 232.8 263.6 232.4 263.4 232.4 263.2 232.4 262.9 232 262.8 231.6 262.9 231.1 263.1 230.7 262.9 230.5 262.6 230.4 262.3 230 262 229.6 262 229.1 262 228.8 261.8 228.8 261.6 228.8 261.3 228.5 261.2 228.2 261.4 227.8 261.5 227.5 261.3 227.3 261 227.2 260.7 226.9 260.4 226.6 260.4 226.3 260.4 226 260.2 226 259.9 226 259.6 225.4 259.6 224.2 259.7 222.8 259.9 222.4 259.8 222.4 259.3 222.4 258.8 222 258.8 220.6 259 218.6 259.3 217 259 217.4 258.4 217.6 258.2 216.1 258 213.9 258 210.8 258 210 258.1 209.8 258.6 209.7 259.1 209.2 259.2 207.9 259 206.5 258.8 206.1 258.9 205.9 259.3 205.7 259.8 205.3 259.9 204.2 259.7 203.3 259.6 202.8 259.7 202.8 259.9 202.8 260.2 202.5 260.4 202.2 260.4 201.9 260.4 201.6 260.6 201.5 261 201.3 261.3 200.9 261.4 200.2 261.3 199.5 261.2 199.2 261.3 199.2 261.7 199.2 262.2 198.9 262.3 197.8 262.1 196.9 262 196.4 262.1 196.4 262.3 196.4 262.6 196.1 262.8 195.8 262.8 195.5 262.8 195.2 263.1 195.2 263.4 195.2 263.9 194.9 263.9 194.2 263.8 193.6 263.6 193.2 263.7 193.2 264 193.2 264.2 192.8 264.4 192.4 264.4 192 264.4 191.6 264.6 191.6 264.8 191.6 265 191.3 265.2 191 265.2 190.7 265.2 190.4 265.5 190.3 265.8 190.1 266.1 189.8 266.3 189.4 266.1 189 266 188.5 266.3 188 266.8 187.6 267.2 187.1 267.6 186.9 267.6 186.7 267.6 186.4 267.9 186.3 268.2 186.1 268.5 185.8 268.7 185.4 268.6 185 268.4 184.8 268.5 184.8 268.9 184.8 269.3 184.3 269.4 182.3 269.3 179.8 269.1 175.6 265.9 175.6 264.2 175.6 263.9 175.4 263.6 175.2 263.6 175 263.6 174.8 263.2 174.8 262.8 174.8 262.3 174.4 261.9 173.8 261.8 173 261.6 172.8 261.3 172.9 260.7 173.2 259.8 170.1 256.4 169 256.4 168.7 256.4 168.4 256.2 168.4 256 168.4 255.8 167.9 255.6 167.2 255.6 166.5 255.6 166 255.4 166 255.1 166 254.8 165.5 254.8 164.4 255 163.2 255.2 162.7 255.1 162.5 254.6 162.4 254.2 161.7 254 160 254 158.3 254 157.6 254.2 157.5 254.6 157.3 255.1 156.8 255.2 155.6 255 154.5 254.8 154 254.8 154 255.1 154 255.4 153.7 255.6 153.4 255.6 152.6 255.6 149.2 259 149.2 259.8 149.2 260.1 149 260.4 148.7 260.4 148.5 260.4 148.4 260.9 148.5 261.8 148.7 262.9 148.6 263.2 148.2 263.2 147.7 263.2 147.6 263.5 147.8 264.7 148 265.9 147.9 266.4 147.4 266.9 146.5 267.8 146.5 275.4 147.4 276.3 147.9 276.8 148 277.4 147.8 279 147.7 280.7 147.7 281.2 148.2 281.4 148.7 281.6 148.8 282 148.6 283.8 148.4 285.3 148.4 286 148.8 286 149 286 149.2 286.8 149.2 288 149.2 289.3 149.4 290 149.8 290.1 150.7 290.5 150.7 297.1 149.8 297.5 149.5 297.6 149.2 298.1 149.2 298.6 149.2 299.2 149 299.6 148.8 299.6 148.6 299.6 148.4 299.9 148.4 300.2 148.4 301.1 145.8 303.6 144.8 303.6 144.4 303.6 144 303.8 143.8 304.1 143.6 304.5 143.6 304.5 143.4 304.1 143.2 303.8 142.9 303.6 142.6 303.6 142.3 303.6 142 303.4 142 303.2 142 303 141.8 302.8 141.6 302.8 141.3 302.8 141.3 303 141.4 303.2 141.5 303.4 141.4 303.5 141 303.4 140.7 303.2 140.4 302.7 140.4 302.2 140.4 301.6 140.2 301.2 140 301.2 139.8 301.2 139.6 300.8 139.6 300.4 139.6 300 139.4 299.6 139.2 299.6 139 299.6 138.8 298.3 138.8 296.4 138.8 294.4 139 293.2 139.2 293.2 139.5 293.2 139.6 292.6 139.4 291.4 139.1 289.9 139.2 289.6 139.8 289.6 140.4 289.6 140.5 289.3 140.3 288 140.1 286.8 140.2 286.3 140.6 286.1 141.1 286 141.2 285.5 141 284 140.7 282.3 140.8 282 141.4 282 142 282 142.1 281.7 141.9 279.2 141.8 277.1 141.8 276.2 142.3 275.8 143.1 275 143.1 252.2 142.2 251.4 141.8 250.9 141.7 249.7 141.9 245.2 142.1 241.1 142 239.6 141.7 239.6 141.4 239.6 141.2 239.2 141.2 238.8 141.2 238.3 141.4 238.1 141.6 238.2 141.8 238.3 142 238.2 142 237.8 142 237.4 141.8 237.3 141.6 237.4 141.4 237.6 141.2 237 141.2 236 141.2 235 141.4 234.5 141.6 234.6 141.8 234.7 142 234.7 142 234.4 142 234.2 141.8 234 141.6 234 141.3 234 141.2 230.7 141.2 225 141.2 218.2 141.1 216 140.7 215.9 140.3 215.8 140.2 210.7 140.3 192.3 140.3 176.4 140.2 168.8 140 168.8 139.4 168.8 138.4 167.8 138.4 167.2 138.4 166.4 136.8 166.8 135.8 167.8 134.7 168.8 134.2 177.3 135.2 177.7 135.4 177.7 135.6 181 135.7 185.6L135.8 193.4 132.9 193.5C130.6 193.6 129.9 193.5 129.8 193 129.6 192.6 129.1 192.5 127.8 192.7 126.4 192.9 126 192.8 125.8 192.3 125.6 191.8 125 191.6 124.2 191.6 123.4 191.6 122.8 191.4 122.8 191.2 122.8 190.9 122.5 190.9 122 191 121 191.3 115.6 189.7 115.3 189 115.2 188.7 114.8 188.6 114.4 188.7 114 188.8 113.6 188.7 113.4 188.4 113.3 188.2 112.8 188 112.4 188 111.9 188 111.5 187.7 111.3 187.4 111.2 187.1 110.9 186.8 110.6 186.8 110.3 186.8 110 186.6 110 186.4 110 186.2 109.6 186 109.2 186 108.8 186 108.4 185.8 108.4 185.6 108.4 185.4 107.8 185.2 107 185.2 106.2 185.2 105.6 185 105.6 184.8 105.6 184.5 105.3 184.4 105 184.6 104.6 184.7 104.3 184.5 104.1 184.2 104 183.9 103.7 183.6 103.4 183.6 103.2 183.6 102.7 183.2 102.4 182.8 102.1 182.4 101.6 182 101.3 182 100.7 182 100.6 180 101.3 178.6 101.5 178.1 101.9 177.6 102.2 177.6 102.5 177.6 102.6 177.2 102.5 176.6 102.4 176 102.5 175.6 102.8 175.6 103.7 175.6 104.4 174.5 104.4 173 104.4 172.2 104.6 171.6 104.8 171.6 105 171.6 105.2 171.2 105.2 170.8 105.2 170.4 105.4 170 105.6 170 105.8 170 106 169.3 106 168.4 106 167.5 106.2 166.8 106.4 166.8 106.6 166.8 106.8 166.4 106.8 166 106.8 165.6 107 165.2 107.3 165.2 107.5 165.2 107.6 164.7 107.5 163.8 107.3 162.8 107.4 162.4 107.8 162.4 108.1 162.4 108.2 162 108.1 161.2 108 160.6 108.1 160 108.4 159.8 108.6 159.7 108.8 159 108.8 158.4 108.8 157.6 109 157.2 109.4 157.2 109.9 157.2 110 156.9 109.9 156 109.9 155.3 110 154.6 110.4 154.4 110.7 154.2 110.8 153.7 110.6 153 110.4 152.3 110.5 152 111 152 111.4 152 111.6 151.7 111.4 151.1 111.2 150.5 111.4 149.9 111.8 149.5 112.1 149.1 112.4 148.3 112.4 147.6 112.4 146.8 112.6 146.4 112.9 146.6 113.2 146.8 113.3 146.5 113.1 145.6 113 144.9 113.1 144.3 113.3 144.2 113.5 144 113.6 143.5 113.6 143 113.6 142.4 113.9 141.9 114.2 141.7 114.5 141.6 114.8 141.1 114.8 140.6 114.8 140 115 139.6 115.2 139.6 115.4 139.6 115.6 139.2 115.6 138.8 115.6 138.4 115.8 138 116.1 138 116.3 138 116.4 137.5 116.3 136.6 116.1 135.5 116.2 135.2 116.6 135.2 116.9 135.2 117.2 134.9 117.2 134.6 117.2 134.3 117.4 134 117.6 134 117.9 134 118 133.5 117.9 132.8 117.8 132 117.9 131.5 118.3 131.3 118.6 131.2 118.8 130.9 118.8 130.6 118.8 130.3 119 130 119.2 130 119.4 130 119.6 129.6 119.6 129.2 119.6 128.8 119.8 128.4 120 128.4 120.2 128.4 120.4 128.1 120.4 127.8 120.4 127.4 120.8 126.8 121.2 126.3 121.8 125.7 122 125.1 121.8 124.3 121.6 123.5 121.7 123.2 122.2 123.2 122.5 123.2 122.8 123 122.8 122.7 122.8 122.5 123.2 122 123.6 121.6 124.1 121.1 124.4 120.6 124.3 120.2 124.1 119.8 124.4 119.4 125 119.1 125.6 118.9 126 118.3 126 117.9 126 117.5 126.2 117.2 126.4 117.2 126.6 117.2 126.9 116.9 127 116.5 127.1 116 127.8 115.1 128.6 114.3 129.4 113.5 130 112.7 130 112.5 130 111.9 132.4 110 133.1 110 133.7 110 137.6 106.2 137.6 105.6 137.6 105.4 137.9 105.2 138.3 105.2 138.6 105.2 139.4 104.6 140.1 103.8 140.8 103 141.5 102.5 141.9 102.7 142.4 102.8 142.8 102.5 143.1 101.9 143.4 101.1 143.8 100.9 144.3 101.1 144.9 101.2 145.2 101 145.4 100.4 145.6 99.9 146 99.6 146.6 99.6 147.2 99.6 147.6 99.4 147.6 99.2 147.6 99 148 98.8 148.4 98.8 148.8 98.8 149.2 98.6 149.2 98.4 149.2 98.2 149.6 98 150 98 150.4 98 150.8 97.8 150.8 97.6 150.8 97.4 151.2 97.2 151.6 97.2 152.1 97.2 152.3 97 152.2 96.8 152 96.6 152.7 96.4 153.8 96.4 154.8 96.4 155.6 96.2 155.6 96 155.6 95.8 156.8 95.6 158.4 95.6 160 95.6 161.2 95.8 161.2 96 161.2 96.2 161.6 96.4 162 96.4 162.4 96.4 162.8 96.6 162.8 96.8 162.8 97.1 163.1 97.1 163.5 97 164.5 96.7 166.5 98.6 166.1 99.4 166 99.8 166.3 100.4 166.8 100.8 167.2 101.2 167.6 101.9 167.6 102.4 167.6 102.9 167.9 103.4 168.4 103.5 168.8 103.6 169.2 104 169.2 104.4 169.2 104.7 169.6 105.3 170 105.6 170.4 105.9 170.8 106.4 170.8 106.7 170.8 107.7 175.1 111.6 176 111.3 176.6 111.2 176.8 111.3 176.8 111.8 176.8 112.3 177 112.4 177.6 112.2 178.2 112 178.4 112.1 178.4 112.6 178.4 113.1 178.6 113.2 179.2 113 179.8 112.8 180 112.9 180 113.4 180 114 180.2 114.1 181.2 113.9 182.1 113.7 182.4 113.8 182.4 114.3 182.4 114.8 182.7 114.8 183.8 114.6 184.9 114.4 185.3 114.5 185.5 115 185.6 115.5 186.1 115.6 188.2 115.4 190.2 115.2 190.8 115.2 191.3 115.8 192.2 116.6 196.2 116.6 197.1 115.8 197.5 115.4 198.4 115.2 200.2 115.2 201.6 115.3 203 115.1 203.3 114.9 203.6 114.6 204.4 114.5 205.1 114.6 206 114.8 206.3 114.7 206.5 114.2 206.7 113.9 207.2 113.6 207.8 113.6 208.4 113.6 209.1 113.4 209.5 113.2 209.9 113 210.9 112.6 211.8 112.2 215.3 110.7 217.6 109.5 217.6 109.1 217.6 108.9 218 108.8 218.4 108.9 219.3 109.2 226 103 226 101.9 226 101.6 226.5 100.7 227 100 227.6 99.3 228 98.5 228 98.3 228 97.8 228.9 96.9 229.9 96.6 230.4 96.5 230.8 96 230.8 95.5 230.8 94.5 232.9 92.4 233.9 92.4 234.3 92.4 234.9 92 235.2 91.6 235.5 91.2 236.2 90.8 236.6 90.8 237.1 90.8 237.7 90.5 238 90.2 238.3 89.9 239.1 89.6 239.8 89.6 240.5 89.6 241.3 89.9 241.6 90.2" fill="#040404"></path></svg>